<svg id="Layer_5" enable-background="new 0 0 64 64" height="512" viewBox="0 0 64 64" width="512" xmlns="http://www.w3.org/2000/svg"><path d="m11 13h3.77c-1.14 2.43-1.77 5.14-1.77 8 0 2.1.34 4.12.98 6h-2.98c-1.1 0-2-.9-2-2v-10c0-1.1.9-2 2-2z" fill="#aab2bd"/><path d="m55 15v10c0 1.1-.9 2-2 2h-2.98c.64-1.88.98-3.9.98-6 0-2.86-.63-5.57-1.77-8h3.77c1.1 0 2 .9 2 2z" fill="#aab2bd"/><path d="m10.67 33.47c-2.11.61-3.92 1.74-5.31 3.22-1.47 1.51-2.51 3.39-3.01 5.43-.49 1.98-.49 4.11.12 6.21.7 2.42 2.09 4.44 3.9 5.93l.03.01c.3-1.48.8-2.89 1.46-4.21l-.11-.06c-.64-.8-1.13-1.73-1.44-2.78-.4-1.4-.4-2.82-.07-4.14.33-1.36 1.02-2.61 2-3.62.75-.8 1.69-1.45 2.76-1.88v-2.58c0-.61.14-1.18.39-1.7-.24.06-.48.1-.72.17z" fill="#ffc729"/><path d="m61.65 42.12c-.5-2.04-1.54-3.92-3.01-5.43-1.39-1.48-3.2-2.61-5.31-3.22-.24-.07-.48-.11-.72-.17.25.52.39 1.09.39 1.7v2.58c1.07.43 2.01 1.08 2.76 1.88.98 1.01 1.67 2.26 2 3.62.33 1.32.33 2.74-.07 4.14-.31 1.05-.8 1.98-1.44 2.78l-.11.06c.66 1.32 1.16 2.73 1.46 4.21l.03-.01c1.81-1.49 3.2-3.51 3.9-5.93.61-2.1.61-4.23.12-6.21z" fill="#ffc729"/><path d="m19 38c0 1.1.9 2 2 2h3c-3.78 0-7.29 1.17-10.18 3.16l-.03-.05c-.34-.69-1.03-1.11-1.79-1.11-.31 0-.62.07-.89.21l-.11-.21v-4.42-2.58c0-.61.14-1.18.39-1.7.63-1.36 2.01-2.3 3.61-2.3h.87c1.21 1.96 2.77 3.67 4.59 5.08-.34.09-.63.27-.87.51-.37.36-.59.86-.59 1.41z" fill="#fcd770"/><path d="m53 42-.77.01c-.07-.01-.15-.01-.23-.01-.76 0-1.45.42-1.79 1.11l-.03.05c-2.89-1.99-6.4-3.16-10.18-3.16h3c.55 0 1.05-.22 1.41-.59.37-.36.59-.86.59-1.41 0-.91-.62-1.69-1.46-1.92 1.82-1.41 3.38-3.12 4.59-5.08h.87c1.6 0 2.98.94 3.61 2.3.25.52.39 1.09.39 1.7v2.58z" fill="#fcd770"/><g fill="#e6e9ed"><path d="m47 58v4h-30v-4l.11-.21c.27.14.57.21.89.21.31 0 .62-.07.89-.21.99-.49 1.39-1.7.9-2.68l-5.97-11.95c2.89-1.99 6.4-3.16 10.18-3.16h16c3.78 0 7.29 1.17 10.18 3.16l-5.97 11.95c-.49.98-.09 2.19.9 2.68.27.14.58.21.89.21.32 0 .62-.07.89-.21z"/><path d="m17.11 57.79-.11.21v4h-11v-4c0-1.28.14-2.53.4-3.73.3-1.48.8-2.89 1.46-4.21.75-1.53 1.72-2.93 2.85-4.17l5.5 11c.2.4.52.71.9.9z"/><path d="m58 58v4h-11v-4l-.11-.21c.38-.19.7-.5.9-.9l5.5-11c1.13 1.24 2.1 2.64 2.85 4.17.66 1.32 1.16 2.73 1.46 4.21.26 1.2.4 2.45.4 3.73z"/></g><path d="m40 46v10c0 1.1-.9 2-2 2h-12c-1.1 0-2-.9-2-2v-10c0-1.1.9-2 2-2h12c1.1 0 2 .9 2 2z" fill="#ff826e"/><path d="m19.79 55.11c.49.98.09 2.19-.9 2.68-.27.14-.58.21-.89.21-.32 0-.62-.07-.89-.21-.38-.19-.7-.5-.9-.9l-5.5-11-.5-1c-.49-.98-.09-2.19.9-2.68.27-.14.58-.21.89-.21.76 0 1.45.42 1.79 1.11l.03.05z" fill="#fcd770"/><path d="m52.89 42.21c.99.49 1.39 1.7.9 2.68l-.5 1-5.5 11c-.2.4-.52.71-.9.9-.27.14-.57.21-.89.21-.31 0-.62-.07-.89-.21-.99-.49-1.39-1.7-.9-2.68l5.97-11.95.03-.05c.34-.69 1.03-1.11 1.79-1.11.08 0 .16 0 .23.01.23.03.46.09.66.2z" fill="#fcd770"/><path d="m43.54 36.08c.84.23 1.46 1.01 1.46 1.92 0 .55-.22 1.05-.59 1.41-.36.37-.86.59-1.41.59h-3-16-3c-1.1 0-2-.9-2-2 0-.55.22-1.05.59-1.41.24-.24.53-.42.87-.51h.01c.17-.06.35-.08.53-.08h22c.18 0 .36.02.53.08z" fill="#aab2bd"/><path d="m50.02 27c-.47 1.42-1.1 2.76-1.89 4-1.21 1.96-2.77 3.67-4.59 5.08h-.01c-.17-.06-.35-.08-.53-.08h-22c-.18 0-.36.02-.53.08h-.01c-1.82-1.41-3.38-3.12-4.59-5.08-.79-1.24-1.42-2.58-1.89-4-.64-1.88-.98-3.9-.98-6 0-2.86.63-5.57 1.77-8 3.01-6.5 9.6-11 17.23-11s14.22 4.5 17.23 11c1.14 2.43 1.77 5.14 1.77 8 0 2.1-.34 4.12-.98 6z" fill="#e6e9ed"/><path d="m47 21c0 3.68-1.34 7.05-3.54 9.65-.74.88-1.85 1.35-3 1.35h-16.92c-1.22 0-2.36-.56-3.13-1.5-2.26-2.75-3.57-6.32-3.39-10.2.35-7.65 6.64-13.94 14.28-14.28 8.6-.39 15.7 6.46 15.7 14.98z" fill="#69d6f4"/><path d="m26 59h12c1.654 0 3-1.346 3-3v-10c0-1.654-1.346-3-3-3h-12c-1.654 0-3 1.346-3 3v10c0 1.654 1.346 3 3 3zm-1-13c0-.552.448-1 1-1h12c.552 0 1 .448 1 1v10c0 .552-.448 1-1 1h-12c-.552 0-1-.448-1-1z"/><path d="m35 47h2v2h-2z"/><path d="m31 47h2v2h-2z"/><path d="m27 47h2v2h-2z"/><path d="m23.54 33h16.922c1.478 0 2.849-.619 3.762-1.699 2.435-2.881 3.776-6.539 3.776-10.301 0-4.411-1.757-8.52-4.947-11.568-3.188-3.047-7.373-4.628-11.796-4.415-8.171.37-14.865 7.063-15.24 15.236-.181 3.96 1.105 7.825 3.623 10.885.974 1.183 2.396 1.862 3.9 1.862zm7.807-25.985c3.872-.18 7.534 1.196 10.324 3.863 2.792 2.668 4.329 6.263 4.329 10.122 0 3.29-1.173 6.489-3.304 9.01-.532.629-1.346.99-2.234.99h-16.922c-.904 0-1.763-.413-2.355-1.134-2.203-2.676-3.328-6.058-3.17-9.521.328-7.151 6.184-13.006 13.332-13.33z"/><path d="m22.01 20.812c-.001-.096-.003-.19.001-.284.021-.451.073-.904.155-1.346l-1.967-.365c-.099.531-.161 1.076-.187 1.619-.006.136-.005.271-.003.406l.003.158h2z"/><path d="m31.528 11.011c.159-.007.314-.011.471-.011v-2c-.187 0-.373.004-.561.013-4.697.213-8.86 3.204-10.608 7.619l1.859.736c1.459-3.684 4.928-6.18 8.839-6.357z"/><path d="m61.383 38.72c-1.678-3.04-4.439-5.245-7.775-6.209-.114-.033-.228-.056-.342-.083-.741-1.225-1.982-2.102-3.447-2.345.346-.676.653-1.371.919-2.083h2.262c1.654 0 3-1.346 3-3v-10c0-1.654-1.346-3-3-3h-3.164c-3.301-6.515-10.047-11-17.836-11s-14.535 4.485-17.836 11h-3.164c-1.654 0-3 1.346-3 3v10c0 1.654 1.346 3 3 3h2.263c.266.712.573 1.407.919 2.083-1.465.244-2.706 1.121-3.447 2.345-.114.026-.228.05-.342.083-3.336.964-6.098 3.169-7.775 6.209s-2.07 6.552-1.106 9.888c.678 2.349 1.99 4.424 3.794 6.047-.199 1.097-.306 2.215-.306 3.345v5h54v-5c0-1.13-.107-2.248-.305-3.345 1.804-1.623 3.115-3.698 3.794-6.047.964-3.337.571-6.848-1.106-9.888zm-.585 8.358-1.932-.558c.158-.909.17-1.815.055-2.695l1.945-.481c.19 1.231.174 2.489-.068 3.734zm-.412-5.676-1.937.479c-.312-.849-.754-1.644-1.307-2.364l1.44-1.385c.387.485.743.999 1.048 1.554.307.554.552 1.13.756 1.716zm-3.661 5.54c-.124.43-.288.84-.487 1.232-.516-.848-1.111-1.652-1.761-2.419l.207-.414c.358-.716.415-1.529.161-2.291-.167-.499-.464-.927-.845-1.27v-2.523c2.421 1.677 3.577 4.738 2.725 7.685zm-48.963 1.232c-.199-.392-.363-.802-.487-1.232-.852-2.947.304-6.008 2.725-7.684v2.523c-.381.343-.678.771-.845 1.27-.254.762-.197 1.575.161 2.291l.207.414c-.65.767-1.245 1.57-1.761 2.418zm3.343-3.727c-.119-.238-.138-.509-.054-.763.085-.255.264-.461.5-.579.14-.069.295-.105.448-.105.381 0 .725.212.896.553l6 12c.119.238.138.509.053.763-.085.255-.263.46-.502.579-.482.24-1.101.03-1.34-.447zm6.896 14.553c.461 0 .923-.109 1.338-.315.717-.358 1.252-.975 1.506-1.735s.197-1.574-.161-2.291l-5.568-11.136c2.676-1.647 5.726-2.523 8.884-2.523h16c3.159 0 6.209.876 8.884 2.523l-5.568 11.135c-.358.717-.415 1.53-.161 2.291s.789 1.377 1.507 1.736c.414.206.876.315 1.337.315h.001v2h-28l.001-2c-.001 0 0 0 0 0zm2.999-20c-.552 0-1-.448-1-1s.448-1 1-1h22c.552 0 1 .448 1 1s-.448 1-1 1h-3-16zm25.895 17.447c-.239.478-.862.687-1.339.448-.24-.12-.418-.325-.503-.58-.085-.254-.066-.524.053-.763l5.999-11.998c.171-.342.515-.554.896-.554.153 0 .308.036.444.104.239.119.418.325.503.58.084.254.065.524-.054.763zm10.301-19.757-1.443 1.389c-.53-.438-1.115-.821-1.753-1.136v-1.943c0-.086-.021-.167-.025-.252 1.191.46 2.273 1.12 3.221 1.942zm-8.196-4.69c1.654 0 3 1.346 3 3v6c-.786 0-1.512.306-2.06.826-1.43-.882-2.954-1.567-4.545-2.039.375-.501.605-1.115.605-1.787 0-.777-.305-1.48-.791-2.014 1.351-1.187 2.519-2.527 3.488-3.986zm4-18c.552 0 1 .448 1 1v10c0 .552-.448 1-1 1h-1.636c.414-1.612.636-3.287.636-5 0-2.465-.47-4.818-1.289-7zm-42 12c-.552 0-1-.448-1-1v-10c0-.552.448-1 1-1h2.289c-.819 2.182-1.289 4.535-1.289 7 0 1.713.222 3.388.636 5zm21-23c9.925 0 18 8.075 18 18 0 5.495-2.462 10.58-6.76 14.024-.08-.006-.158-.024-.24-.024h-22c-.082 0-.16.018-.24.024-4.298-3.444-6.76-8.529-6.76-14.024 0-9.925 8.075-18 18-18zm-17 29h.304c.969 1.459 2.137 2.8 3.488 3.986-.487.534-.792 1.237-.792 2.014 0 .672.23 1.287.605 1.787-1.591.472-3.115 1.157-4.545 2.038-.547-.519-1.274-.825-2.06-.825v-6c0-1.654 1.346-3 3-3zm-5 3v1.942c-.638.315-1.223.698-1.753 1.136l-1.443-1.388c.948-.822 2.03-1.482 3.222-1.942-.005.085-.026.166-.026.252zm-4.582 3.132 1.44 1.385c-.553.719-.995 1.515-1.307 2.364l-1.937-.479c.204-.586.45-1.162.755-1.716.306-.555.662-1.069 1.049-1.554zm-2.216 8.946c-.242-1.245-.257-2.503-.069-3.735l1.945.481c-.114.881-.102 1.787.055 2.695zm.556 1.922 1.931-.558c.263.637.601 1.234 1.002 1.794-.319.706-.597 1.428-.827 2.167-.906-.994-1.617-2.144-2.106-3.403zm3.242 9c0-3.733 1.236-7.335 3.499-10.292l4.817 9.634c.173.345.409.642.684.889v2.769h-9zm50 3h-9v-2.769c.275-.247.511-.544.684-.889l4.817-9.634c2.263 2.957 3.499 6.559 3.499 10.292zm1.137-8.598c-.23-.739-.508-1.461-.827-2.167.401-.559.739-1.157 1.002-1.794l1.93.559c-.489 1.259-1.2 2.409-2.105 3.402z"/></svg>