<svg id="color_line" height="512" viewBox="0 0 74 74" width="512" xmlns="http://www.w3.org/2000/svg" data-name="color line"><path d="m29.976 52.746c-3.246 9.14 1.663 8.92 5.024 16.634.937 2.153 3.2 2.165 4.128.005 2.541-5.91 5.958-7.164 5.958-11.54a15.521 15.521 0 0 0 -1.086-5.099z" fill="#fcd462"/><path d="m45.08 57.84c0 4.38-3.42 5.64-5.96 11.54-.93 2.15-3.17 2.15-4.1.03a2.513 2.513 0 0 0 1.52-1.53c2.54-5.9 5.96-7.16 5.96-11.54a13.1 13.1 0 0 0 -.59-3.59h2.09a15.5 15.5 0 0 1 1.08 5.09z" fill="#f7be56"/><path d="m32.618 52.746c-1.5 4.82 1.268 4.88 3.187 9.29a1.265 1.265 0 0 0 2.457 0c1.512-3.517 3.546-4.264 3.546-6.868a8.286 8.286 0 0 0 -.441-2.424z" fill="#fe7058"/><path d="m47.66 22.06v27.82h-21.33v-27.82a24.978 24.978 0 0 1 3.16-12.18 24.1 24.1 0 0 1 7.32-8.13 1.272 1.272 0 0 1 .19-.13c.05.04.11.08.17.12a24.145 24.145 0 0 1 7.33 8.13 25.016 25.016 0 0 1 3.16 12.19z" fill="#eeefee"/><path d="m44.5 9.87a25.016 25.016 0 0 1 3.16 12.19v27.82h-3v-25.57a24.986 24.986 0 0 0 -3.11-12.1" fill="#e1e6e9"/><path d="m41.55 12.21c-.02-.03-.03-.06-.05-.09a24.145 24.145 0 0 0 -7.33-8.13c-.02-.01-.04-.03-.06-.04a22.925 22.925 0 0 1 2.7-2.2 1.272 1.272 0 0 1 .19-.13c.05.04.11.08.17.12a24.145 24.145 0 0 1 7.33 8.13" fill="#ea6453"/><circle cx="36.995" cy="21.236" fill="#89c5cd" r="4.514"/><g fill="#323c6b"><path d="m37 26.25a5.014 5.014 0 1 1 5.014-5.014 5.02 5.02 0 0 1 -5.014 5.014zm0-9.028a4.014 4.014 0 1 0 4.014 4.014 4.018 4.018 0 0 0 -4.014-4.014z"/><path d="m37 44.486a.5.5 0 0 1 -.5-.5v-6.2a.5.5 0 0 1 1 0v6.2a.5.5 0 0 1 -.5.5z"/><path d="m32.03 44.459a.5.5 0 0 1 -.5-.5v-2.726a.5.5 0 0 1 1 0v2.727a.5.5 0 0 1 -.5.499z"/><path d="m41.96 44.459a.5.5 0 0 1 -.5-.5v-2.726a.5.5 0 0 1 1 0v2.727a.5.5 0 0 1 -.5.499z"/></g><path d="m44.5 9.87a9.9 9.9 0 0 1 -15.01.01 24.1 24.1 0 0 1 7.32-8.13 1.272 1.272 0 0 1 .19-.13c.05.04.11.08.17.12a24.145 24.145 0 0 1 7.33 8.13z" fill="#fe7058"/><path d="m44.5 9.87a9.884 9.884 0 0 1 -2.95 2.34c-.02-.03-.03-.06-.05-.09a24.145 24.145 0 0 0 -7.33-8.13c-.02-.01-.04-.03-.06-.04a22.925 22.925 0 0 1 2.7-2.2 1.272 1.272 0 0 1 .19-.13c.05.04.11.08.17.12a24.145 24.145 0 0 1 7.33 8.13z" fill="#ea6453"/><path d="m27.949 49.88h18.092v3.62h-18.092z" fill="#9297ab"/><path d="m46.042 54h-18.093a.5.5 0 0 1 -.5-.5v-3.62a.5.5 0 0 1 .5-.5h18.093a.5.5 0 0 1 .5.5v3.62a.5.5 0 0 1 -.5.5zm-17.593-1h17.093v-2.62h-17.093z" fill="#323c6b"/><path d="m47.66 50.38h-21.33a.5.5 0 0 1 -.5-.5v-27.82a25.525 25.525 0 0 1 3.224-12.424 24.763 24.763 0 0 1 7.47-8.3 1.5 1.5 0 0 1 .228-.153.5.5 0 0 1 .562.044c.039.031.086.063.134.094a24.8 24.8 0 0 1 7.49 8.3 25.547 25.547 0 0 1 3.222 12.439v27.82a.5.5 0 0 1 -.5.5zm-20.83-1h20.33v-27.32a24.549 24.549 0 0 0 -3.1-11.946 23.8 23.8 0 0 0 -7.06-7.885 23.823 23.823 0 0 0 -7.068 7.893 24.523 24.523 0 0 0 -3.1 11.938z" fill="#323c6b"/><path d="m37 13.82a10.406 10.406 0 0 1 -7.888-3.613.5.5 0 0 1 -.06-.568 24.771 24.771 0 0 1 7.472-8.3 1.5 1.5 0 0 1 .228-.153.5.5 0 0 1 .562.044c.039.031.086.063.134.094a24.8 24.8 0 0 1 7.49 8.3.5.5 0 0 1 -.058.568 10.37 10.37 0 0 1 -7.88 3.628zm-6.9-4.007a9.409 9.409 0 0 0 6.9 3.007 9.371 9.371 0 0 0 6.889-3.02 23.793 23.793 0 0 0 -6.889-7.571 23.851 23.851 0 0 0 -6.9 7.584z" fill="#323c6b"/><path d="m47.672 30.806a16.845 16.845 0 0 1 8.786 8.786l.051.119a10.126 10.126 0 0 1 -1.956 10.8l-1.431 1.553a15.1 15.1 0 0 0 -5.45-6.371z" fill="#fe7058"/><path d="m54.55 50.51-1.43 1.55a11.759 11.759 0 0 0 -.86-1.62 10.108 10.108 0 0 0 1.33-10.06c-.02-.04-.03-.08-.05-.12a17.14 17.14 0 0 0 -5.87-7.17v-2.28a16.834 16.834 0 0 1 8.79 8.78.606.606 0 0 0 .05.12 10.122 10.122 0 0 1 -1.96 10.8z" fill="#ea6453"/><path d="m53.122 52.563a.545.545 0 0 1 -.088-.008.5.5 0 0 1 -.374-.3 14.73 14.73 0 0 0 -5.252-6.136.5.5 0 0 1 -.235-.424v-14.888a.5.5 0 0 1 .67-.47 17.2 17.2 0 0 1 9.073 9.055l.054.125a10.622 10.622 0 0 1 -2.05 11.332l-1.431 1.551a.5.5 0 0 1 -.367.163zm-4.95-7.145a15.534 15.534 0 0 1 5.084 5.76l.928-1.007a9.622 9.622 0 0 0 1.864-10.264l-.048-.114a16.665 16.665 0 0 0 -7.827-8.221z" fill="#323c6b"/><path d="m26.319 45.692a15.1 15.1 0 0 0 -5.45 6.371l-1.431-1.553a10.126 10.126 0 0 1 -1.956-10.8l.051-.119a16.845 16.845 0 0 1 8.786-8.786z" fill="#fe7058"/><path d="m19.44 50.51 1.43 1.55a11.759 11.759 0 0 1 .86-1.62 10.108 10.108 0 0 1 -1.33-10.06c.02-.04.03-.08.05-.12a17.14 17.14 0 0 1 5.87-7.17v-2.28a16.834 16.834 0 0 0 -8.79 8.78.606.606 0 0 1 -.05.12 10.122 10.122 0 0 0 1.96 10.8z" fill="#ea6453"/><path d="m20.869 52.563a.5.5 0 0 1 -.369-.163l-1.43-1.551a10.624 10.624 0 0 1 -2.048-11.334l.053-.124a17.2 17.2 0 0 1 9.074-9.054.5.5 0 0 1 .67.47v14.884a.5.5 0 0 1 -.235.424 14.729 14.729 0 0 0 -5.252 6.136.5.5 0 0 1 -.374.3.545.545 0 0 1 -.089.012zm4.95-20.988a16.7 16.7 0 0 0 -7.828 8.218l-.048.112a9.624 9.624 0 0 0 1.863 10.267l.928 1.007a15.536 15.536 0 0 1 5.085-5.76z" fill="#323c6b"/><path d="m37.067 71.5a2.851 2.851 0 0 1 -2.53-1.92 24.669 24.669 0 0 0 -3.537-5.687c-2.165-2.783-3.728-4.793-1.49-10.574a.5.5 0 0 1 .466-.319h14.024a.5.5 0 0 1 .438.26 9.828 9.828 0 0 1 1.139 4.585c0 2.656-1.159 4.207-2.627 6.17a25.507 25.507 0 0 0 -3.371 5.567 2.83 2.83 0 0 1 -2.507 1.918zm-6.746-17.5c-1.86 5-.6 6.625 1.467 9.279a25.873 25.873 0 0 1 3.666 5.9 1.894 1.894 0 0 0 1.613 1.32 1.874 1.874 0 0 0 1.594-1.312 26.375 26.375 0 0 1 3.489-5.772c1.41-1.885 2.428-3.247 2.428-5.571a8.888 8.888 0 0 0 -.878-3.844z" fill="#323c6b"/><path d="m25.041 12.958a.5.5 0 0 1 -.47-.671l.135-.381a.5.5 0 1 1 .935.354l-.13.369a.5.5 0 0 1 -.47.329z" fill="#323c6b"/><path d="m25.924 10.792a.493.493 0 0 1 -.209-.046.5.5 0 0 1 -.244-.664c.333-.721.649-1.346.963-1.909a27.293 27.293 0 0 1 3.322-4.709.5.5 0 0 1 .754.656 26.315 26.315 0 0 0 -3.2 4.539c-.3.543-.607 1.145-.931 1.843a.5.5 0 0 1 -.455.29z" fill="#323c6b"/></svg>